<svg width="40" height="40" viewBox="0 0 40 40" fill="none" xmlns="http://www.w3.org/2000/svg">
<g id="starlingbank 1" clip-path="url(#clip0_86_53)">
<path id="Vector" d="M20 0C8.95433 0 0 8.9545 0 20C0 31.045 8.95433 40 20 40C31.0465 40 40 31.045 40 20C40 8.9545 31.0465 0 20 0ZM26.0157 7.9265V10.3712C20.7205 10.3712 16.4257 14.6655 16.4257 19.961H13.9813C13.9813 13.314 19.369 7.9265 26.0157 7.9265ZM23.5742 19.961H26.0188C26.0188 26.6092 20.6305 31.9987 13.9812 31.9987V29.5508C19.279 29.5508 23.5742 25.2582 23.5742 19.961Z" fill="white"/>
</g>
<defs>
<clipPath id="clip0_86_53">
<rect width="40" height="40" fill="white"/>
</clipPath>
</defs>
</svg>
